<mxfile host="app.diagrams.net" modified="2024-11-04T00:00:00.000Z" agent="Mozilla/5.0" version="21.6.8" type="device">
<diagram id="platform-sre-workflow" name="Platform SRE Workflow">
<mxGraphModel dx="1422" dy="762" grid="1" gridSize="10" guides="1" tooltips="1" connect="1" arrows="1" fold="1" page="1" pageScale="1" pageWidth="1169" pageHeight="827" math="0" shadow="0">
<root>
<mxCell id="0"/>
<mxCell id="1" parent="0"/>

<!-- Style Definitions -->
<object label="Styles">
    <mxStyle>
        .section-header {
            fontSize: 14;
            fontStyle: 1;
            align: center;
            spacingLeft: 4;
            spacingRight: 4;
            fontColor: #333333;
        }
        .node-box {
            rounded: 1;
            shadow: 1;
            glass: 1;
            strokeWidth: 1.5;
        }
        .connection-label {
            fontSize: 10;
            fontColor: #666666;
            spacing: 4;
        }
    </mxStyle>
</object>

<!-- 1. Initial SRE Setup Section -->
<mxCell id="initial_setup_container" value="1. Initial SRE Setup" style="swimlane;fontStyle=1;childLayout=stackLayout;horizontal=1;startSize=30;horizontalStack=0;resizeParent=1;resizeParentMax=0;resizeLast=0;collapsible=1;marginBottom=0;fillColor=#e6f3ff;strokeColor=#7ea6e0;fontColor=#333333;" vertex="1" parent="1">
    <mxGeometry x="40" y="40" width="280" height="320" as="geometry"/>
</mxCell>

<!-- Initial Setup Nodes -->
<mxCell id="platform_launch" value="1. IDP Platform Launch&#xa;- Platform initialization&#xa;- Environment setup&#xa;- Initial configurations" style="node-box;fillColor=#ffffff;strokeColor=#7ea6e0;" vertex="1" parent="initial_setup_container">
    <mxGeometry y="40" width="260" height="60" as="geometry"/>
</mxCell>

<mxCell id="baseline_docs" value="2. Establish Baseline Documentation&#xa;- Architecture specifications&#xa;- Design documents&#xa;- Infrastructure diagrams" style="node-box;fillColor=#ffffff;strokeColor=#7ea6e0;" vertex="1" parent="initial_setup_container">
    <mxGeometry y="110" width="260" height="60" as="geometry"/>
</mxCell>

<mxCell id="initial_observability" value="3. Set Up Initial Observability&#xa;- Monitoring configurations&#xa;- Basic alerting rules&#xa;- Log aggregation" style="node-box;fillColor=#ffffff;strokeColor=#7ea6e0;" vertex="1" parent="initial_setup_container">
    <mxGeometry y="180" width="260" height="60" as="geometry"/>
</mxCell>

<mxCell id="capacity_planning" value="4-6. Initial Setup Tasks&#xa;- Resource estimation&#xa;- Toil assessment&#xa;- Core SRE metrics definition" style="node-box;fillColor=#ffffff;strokeColor=#7ea6e0;" vertex="1" parent="initial_setup_container">
    <mxGeometry y="250" width="260" height="60" as="geometry"/>
</mxCell>

<!-- 2. Continuous Release and Analysis Cycle Section -->
<mxCell id="release_cycle_container" value="2. Continuous Release and Analysis Cycle" style="swimlane;fontStyle=1;childLayout=stackLayout;horizontal=1;startSize=30;horizontalStack=0;resizeParent=1;resizeParentMax=0;resizeLast=0;collapsible=1;marginBottom=0;fillColor=#fff3e6;strokeColor=#d79b00;" vertex="1" parent="1">
    <mxGeometry x="360" y="40" width="280" height="520" as="geometry"/>
</mxCell>

<!-- Release Cycle Nodes -->
<mxCell id="deployment" value="7. Release Deployment&#xa;- Deployment execution&#xa;- Configuration updates&#xa;- Service verification" style="node-box;fillColor=#ffffff;strokeColor=#d79b00;" vertex="1" parent="release_cycle_container">
    <mxGeometry y="40" width="260" height="60" as="geometry"/>
</mxCell>

<!-- Add remaining release cycle nodes (8-20) -->

<!-- 3. External Data Inputs Section -->
<mxCell id="external_inputs_container" value="3. External Data Inputs" style="swimlane;fontStyle=1;childLayout=stackLayout;horizontal=1;startSize=30;horizontalStack=0;resizeParent=1;resizeParentMax=0;resizeLast=0;collapsible=1;marginBottom=0;fillColor=#e6ffe6;strokeColor=#82b366;" vertex="1" parent="1">
    <mxGeometry x="40" y="400" width="280" height="320" as="geometry"/>
</mxCell>

<!-- Input Nodes -->
<mxCell id="developer_feedback" value="21-22. Developer Feedback&#xa;- Feature requests&#xa;- Pain points&#xa;- Enhancement proposals" style="node-box;fillColor=#ffffff;strokeColor=#82b366;" vertex="1" parent="external_inputs_container">
    <mxGeometry y="40" width="260" height="60" as="geometry"/>
</mxCell>

<!-- Add remaining input nodes (23-30) -->

<!-- 4. SRE Metrics Collection and Analysis Section -->
<mxCell id="metrics_container" value="4. SRE Metrics Collection and Analysis" style="swimlane;fontStyle=1;childLayout=stackLayout;horizontal=1;startSize=30;horizontalStack=0;resizeParent=1;resizeParentMax=0;resizeLast=0;collapsible=1;marginBottom=0;fillColor=#ffe6e6;strokeColor=#b85450;" vertex="1" parent="1">
    <mxGeometry x="360" y="600" width="280" height="320" as="geometry"/>
</mxCell>

<!-- Metrics Nodes -->
<mxCell id="sli_slo_tracking" value="31-32. SLI/SLO Tracking&#xa;- Service level indicators&#xa;- Service level objectives&#xa;- Compliance monitoring" style="node-box;fillColor=#ffffff;strokeColor=#b85450;" vertex="1" parent="metrics_container">
    <mxGeometry y="40" width="260" height="60" as="geometry"/>
</mxCell>

<!-- Connection Definitions -->
<!-- Initial Setup Connections -->
<mxCell id="conn_launch_to_docs" value="Architecture Docs,&#xa;Design Specs" style="edgeStyle=orthogonalEdgeStyle;rounded=1;orthogonalLoop=1;jettySize=auto;html=1;labelBackgroundColor=#ffffff;fontSize=10;" edge="1" parent="1" source="platform_launch" target="baseline_docs">
    <mxGeometry relative="1" as="geometry"/>
</mxCell>

<!-- Add remaining connections -->

<!-- Global Properties -->
<object label="Properties">
    <Array as="properties">
        <Object as="property">
            <String as="name">gridEnabled</String>
            <String as="value">1</String>
        </Object>
        <Object as="property">
            <String as="name">pageScale</String>
            <String as="value">1.5</String>
        </Object>
    </Array>
</object>

</root>
</mxGraphModel>
</diagram>
</mxfile>
